<svg width="40" height="40" viewBox="0 0 40 40" fill="none" xmlns="http://www.w3.org/2000/svg">
<g clip-path="url(#clip0_306_590)">
<path fill-rule="evenodd" clip-rule="evenodd" d="M0 0H2.5V37.5H40V40H0V0ZM37.0425 7.7825C37.1696 7.88652 37.275 8.01458 37.3526 8.15935C37.4302 8.30413 37.4785 8.46278 37.4948 8.62623C37.511 8.78968 37.4949 8.95474 37.4473 9.11196C37.3997 9.26918 37.3217 9.41548 37.2175 9.5425L25.9675 23.2925C25.8569 23.4275 25.7193 23.5378 25.5635 23.6164C25.4078 23.6949 25.2373 23.74 25.063 23.7488C24.8887 23.7575 24.7146 23.7296 24.5518 23.667C24.3889 23.6043 24.241 23.5083 24.1175 23.385L17.65 16.9175L8.51 29.485C8.31006 29.7392 8.01935 29.9061 7.69896 29.9505C7.37857 29.9949 7.05346 29.9133 6.79193 29.723C6.5304 29.5327 6.35283 29.2484 6.29653 28.9299C6.24022 28.6114 6.30957 28.2834 6.49 28.015L16.49 14.265C16.5961 14.1188 16.7327 13.9973 16.8903 13.909C17.0479 13.8206 17.2228 13.7675 17.4029 13.7532C17.583 13.739 17.7641 13.7639 17.9336 13.8264C18.1032 13.8888 18.2572 13.9873 18.385 14.115L24.9075 20.64L35.2825 7.9575C35.3865 7.83037 35.5146 7.725 35.6594 7.64739C35.8041 7.56979 35.9628 7.52148 36.1262 7.50523C36.2897 7.48897 36.4547 7.5051 36.612 7.55267C36.7692 7.60025 36.9155 7.67835 37.0425 7.7825Z" fill="black"/>
</g>
<defs>
<clipPath id="clip0_306_590">
<rect width="40" height="40" fill="white"/>
</clipPath>
</defs>
</svg>
