<svg width="28" height="28" viewBox="0 0 28 28" fill="none" xmlns="http://www.w3.org/2000/svg">
<path d="M3.7916 20.4166C3.98651 20.4111 4.18054 20.4448 4.36222 20.5155C4.5439 20.5863 4.70955 20.6928 4.84936 20.8287C4.98917 20.9646 5.1003 21.1272 5.17619 21.3068C5.25208 21.4864 5.29118 21.6794 5.29118 21.8744C5.29118 22.0694 5.25208 22.2624 5.17619 22.442C5.1003 22.6216 4.98917 22.7842 4.84936 22.9201C4.70955 23.056 4.5439 23.1625 4.36222 23.2332C4.18054 23.304 3.98651 23.3377 3.7916 23.3321C3.41212 23.3214 3.05178 23.1631 2.78717 22.8909C2.52255 22.6187 2.37451 22.254 2.37451 21.8744C2.37451 21.4948 2.52255 21.1301 2.78717 20.8579C3.05178 20.5857 3.41212 20.4274 3.7916 20.4166ZM7.87494 21H24.7916C25.0133 21 25.2267 21.0843 25.3887 21.2356C25.5507 21.387 25.6492 21.5942 25.6643 21.8153C25.6794 22.0365 25.61 22.2552 25.4701 22.4272C25.3302 22.5991 25.1302 22.7116 24.9106 22.7418L24.7916 22.75H7.87494C7.65324 22.7499 7.43984 22.6657 7.27784 22.5143C7.11585 22.363 7.01735 22.1558 7.00224 21.9346C6.98713 21.7134 7.05654 21.4948 7.19644 21.3228C7.33634 21.1508 7.53631 21.0384 7.75593 21.0081L7.87494 21ZM3.7916 12.8333C3.98651 12.8278 4.18054 12.8614 4.36222 12.9322C4.5439 13.003 4.70955 13.1095 4.84936 13.2454C4.98917 13.3813 5.1003 13.5439 5.17619 13.7235C5.25208 13.9031 5.29118 14.0961 5.29118 14.2911C5.29118 14.486 5.25208 14.679 5.17619 14.8587C5.1003 15.0383 4.98917 15.2008 4.84936 15.3367C4.70955 15.4726 4.5439 15.5791 4.36222 15.6499C4.18054 15.7207 3.98651 15.7543 3.7916 15.7488C3.41212 15.7381 3.05178 15.5798 2.78717 15.3076C2.52255 15.0354 2.37451 14.6707 2.37451 14.2911C2.37451 13.9114 2.52255 13.5468 2.78717 13.2745C3.05178 13.0023 3.41212 12.844 3.7916 12.8333ZM7.87494 13.4166H24.7916C25.0133 13.4167 25.2267 13.5009 25.3887 13.6523C25.5507 13.8036 25.6492 14.0108 25.6643 14.232C25.6794 14.4532 25.61 14.6718 25.4701 14.8438C25.3302 15.0158 25.1302 15.1283 24.9106 15.1585L24.7916 15.1666H7.87494C7.65324 15.1666 7.43984 15.0824 7.27784 14.931C7.11585 14.7797 7.01735 14.5725 7.00224 14.3513C6.98713 14.1301 7.05654 13.9114 7.19644 13.7395C7.33634 13.5675 7.53631 13.455 7.75593 13.4248L7.87494 13.4166ZM3.7916 5.24997C3.98651 5.24446 4.18054 5.27809 4.36222 5.34886C4.5439 5.41964 4.70955 5.52614 4.84936 5.66205C4.98917 5.79796 5.1003 5.96052 5.17619 6.14013C5.25208 6.31974 5.29118 6.51274 5.29118 6.70772C5.29118 6.90271 5.25208 7.09571 5.17619 7.27532C5.1003 7.45492 4.98917 7.61749 4.84936 7.7534C4.70955 7.88931 4.5439 7.9958 4.36222 8.06658C4.18054 8.13736 3.98651 8.17099 3.7916 8.16547C3.41212 8.15474 3.05178 7.99644 2.78717 7.72423C2.52255 7.45202 2.37451 7.08736 2.37451 6.70772C2.37451 6.32809 2.52255 5.96342 2.78717 5.69121C3.05178 5.419 3.41212 5.26071 3.7916 5.24997ZM7.87494 5.83331H24.7916C25.0133 5.83337 25.2267 5.91759 25.3887 6.06894C25.5507 6.22029 25.6492 6.42749 25.6643 6.64867C25.6794 6.86985 25.61 7.08851 25.4701 7.26049C25.3302 7.43246 25.1302 7.54492 24.9106 7.57514L24.7916 7.58331H7.87494C7.65324 7.58324 7.43984 7.49902 7.27784 7.34767C7.11585 7.19632 7.01735 6.98912 7.00224 6.76795C6.98713 6.54677 7.05654 6.3281 7.19644 6.15612C7.33634 5.98415 7.53631 5.87169 7.75593 5.84147L7.87494 5.83331Z" fill="black"/>
</svg>
