<svg width="28" height="28" viewBox="0 0 28 28" fill="none" xmlns="http://www.w3.org/2000/svg">
<path d="M23.3335 6.99998H19.8335V4.66665C19.8335 3.37981 18.787 2.33331 17.5002 2.33331H10.5002C9.21333 2.33331 8.16683 3.37981 8.16683 4.66665V6.99998H4.66683C3.38 6.99998 2.3335 8.04648 2.3335 9.33331V22.1666C2.3335 23.4535 3.38 24.5 4.66683 24.5H23.3335C24.6203 24.5 25.6668 23.4535 25.6668 22.1666V9.33331C25.6668 8.04648 24.6203 6.99998 23.3335 6.99998ZM18.6668 9.33331V22.1666H9.3335V9.33331H18.6668ZM17.5002 4.66665V6.99998H10.5002V4.66665H17.5002ZM4.66683 9.33331H7.00016V22.1666H4.66683V9.33331ZM21.0002 22.1666V9.33331H23.3335L23.3347 22.1666H21.0002Z" fill="black"/>
</svg>
