<svg width="22" height="22" viewBox="0 0 22 22" fill="none" xmlns="http://www.w3.org/2000/svg">
<path d="M18.333 6.41665H17.2248C17.3581 5.9707 17.4227 5.50705 17.4163 5.04165C17.4163 3.27248 15.9772 1.83331 14.208 1.83331C12.7212 1.83331 11.7284 3.19181 11.0877 4.66123C10.4561 3.27248 9.41292 1.83331 7.79134 1.83331C6.02217 1.83331 4.58301 3.27248 4.58301 5.04165C4.58301 5.58798 4.65542 6.0399 4.77459 6.41665H3.66634C2.65526 6.41665 1.83301 7.2389 1.83301 8.24998V10.0833C1.83301 11.0944 2.65526 11.9166 3.66634 11.9166V18.3333C3.66634 19.3444 4.48859 20.1666 5.49967 20.1666H16.4997C17.5108 20.1666 18.333 19.3444 18.333 18.3333V11.9166C19.3441 11.9166 20.1663 11.0944 20.1663 10.0833V8.24998C20.1663 7.2389 19.3441 6.41665 18.333 6.41665ZM14.208 3.66665C14.9661 3.66665 15.583 4.28356 15.583 5.04165C15.583 6.41665 15.0092 6.41665 14.6663 6.41665H12.3948C12.8633 4.97198 13.5434 3.66665 14.208 3.66665ZM6.41634 5.04165C6.41634 4.28356 7.03326 3.66665 7.79134 3.66665C8.60534 3.66665 9.36251 5.06456 9.80617 6.41665H7.33301C6.99017 6.41665 6.41634 6.41665 6.41634 5.04165ZM3.66634 8.24998H10.083V10.0833H3.66634V8.24998ZM5.49967 18.3333V11.9166H10.083V18.3333H5.49967ZM16.4997 18.3333H11.9163V11.9166H16.4997V18.3333ZM11.9163 10.0833V8.3279L11.9319 8.24998H18.333L18.3339 10.0833H11.9163Z" fill="#474747"/>
</svg>
